<?xml version="1.0" encoding="UTF-8" standalone="no"?>
<!-- Created with Inkscape (http://www.inkscape.org/) -->

<svg
   xmlns:dc="http://purl.org/dc/elements/1.1/"
   xmlns:cc="http://creativecommons.org/ns#"
   xmlns:rdf="http://www.w3.org/1999/02/22-rdf-syntax-ns#"
   xmlns:svg="http://www.w3.org/2000/svg"
   xmlns="http://www.w3.org/2000/svg"
   xmlns:sodipodi="http://sodipodi.sourceforge.net/DTD/sodipodi-0.dtd"
   xmlns:inkscape="http://www.inkscape.org/namespaces/inkscape"
   width="210mm"
   height="297mm"
   viewBox="0 0 210 297"
   version="1.1"
   id="svg8"
   sodipodi:docname="clocks0.svg"
   inkscape:version="0.92.2 2405546, 2018-03-11">
  <defs
     id="defs2">
    <inkscape:path-effect
       effect="sketch"
       id="path-effect8859"
       is_visible="true"
       nbiter_approxstrokes="5"
       strokelength="100"
       strokelength_rdm="0.3;1"
       strokeoverlap="0.3"
       strokeoverlap_rdm="0.3;1"
       ends_tolerance="0.1;1"
       parallel_offset="5;1"
       tremble_size="5;1"
       tremble_frequency="1"
       nbtangents="5"
       tgt_places_rdmness="1;1"
       tgtscale="10"
       tgtlength="100"
       tgtlength_rdm="0.3;1" />
    <inkscape:path-effect
       effect="sketch"
       id="path-effect8855"
       is_visible="true"
       nbiter_approxstrokes="1"
       strokelength="60"
       strokelength_rdm="0.3;1"
       strokeoverlap="0.3"
       strokeoverlap_rdm="0.3;1"
       ends_tolerance="0.1;1"
       parallel_offset="5;1"
       tremble_size="5;1"
       tremble_frequency="1"
       nbtangents="5"
       tgt_places_rdmness="1;1"
       tgtscale="10"
       tgtlength="100"
       tgtlength_rdm="0.3;1" />
  </defs>
  <sodipodi:namedview
     id="base"
     pagecolor="#ffffff"
     bordercolor="#666666"
     borderopacity="1.0"
     inkscape:pageopacity="0.0"
     inkscape:pageshadow="2"
     inkscape:zoom="0.9227307"
     inkscape:cx="212.51348"
     inkscape:cy="602.26072"
     inkscape:document-units="mm"
     inkscape:current-layer="layer1"
     showgrid="true"
     showguides="true"
     inkscape:guide-bbox="true"
     inkscape:window-width="1920"
     inkscape:window-height="1013"
     inkscape:window-x="0"
     inkscape:window-y="0"
     inkscape:window-maximized="1">
    <sodipodi:guide
       position="104.32143,118.30655"
       orientation="1,0"
       id="guide8456"
       inkscape:locked="false" />
    <inkscape:grid
       type="xygrid"
       id="grid8554" />
  </sodipodi:namedview>
  <metadata
     id="metadata5">
    <rdf:RDF>
      <cc:Work
         rdf:about="">
        <dc:format>image/svg+xml</dc:format>
        <dc:type
           rdf:resource="http://purl.org/dc/dcmitype/StillImage" />
        <dc:title></dc:title>
      </cc:Work>
    </rdf:RDF>
  </metadata>
  <g
     inkscape:label="Layer 1"
     inkscape:groupmode="layer"
     id="layer1">
    <path
       style="opacity:1;fill:none;fill-opacity:0.86703599;fill-rule:nonzero;stroke:#000000;stroke-width:1;stroke-miterlimit:4;stroke-dasharray:none;stroke-opacity:1"
       id="path8450"
       inkscape:path-effect="#path-effect8859"
       sodipodi:type="arc"
       sodipodi:cx="104.32143"
       sodipodi:cy="145.43155"
       sodipodi:rx="71.4375"
       sodipodi:ry="71.4375"
       d="m 178.50859,159.83631 c -1.29686,26.51117 -20.43882,50.63395 -47.1978,60.38268 m 15.9174,-19.28737 c -12.47582,8.53818 -26.92843,13.30525 -41.51034,13.49297 -8.791204,0.11317 -17.400514,-1.44388 -25.385969,-4.61013 m 8.37423,9.85773 C 62.555743,215.1166 42.183522,197.37904 33.844375,172.19506 m 13.291273,17.52653 C 39.722643,178.34598 35.614363,164.5275 35.736281,150.33241 35.886399,132.85377 42.447699,115.91172 54.831018,103.34329 M 32.738381,117.51547 C 41.951714,89.48603 69.832556,70.981332 102.31489,69.051094 M 80.675521,79.383217 c 7.250208,-2.363371 15.090674,-3.709879 23.174789,-3.95129 18.20408,-0.543618 36.51464,4.53781 51.38627,14.312442 M 133.7041,83.570145 c 21.76661,12.118411 37.27851,34.872055 40.26289,59.837275 m 2.36315,-20.47508 c 1.79771,6.06041 2.67015,12.40753 2.60817,18.86201 -3.3e-4,5.7e-4 -6.5e-4,0.001 -9.8e-4,0.002 -0.17076,17.52212 -7.1986,35.05124 -19.68227,49.40785 m 15.88473,-36.30712 c -3.31316,32.03577 -29.06633,55.58402 -61.4219,57.85411 m 27.20059,-9.31464 c -10.83,6.42108 -22.64741,9.82261 -34.42551,10.146 -18.008601,0.49447 -34.769351,-6.23082 -46.834069,-17.85576 m 15.59583,14.84874 C 50.867994,199.4648 33.48323,173.52173 33.149628,144.87402 m -2.096377,14.9704 C 29.480655,153.52271 28.705166,146.85629 28.795965,140.06149 29.114762,116.20461 40.059771,92.939776 59.37244,78.268116 M 40.766638,102.79223 c 14.29225,-17.976933 35.93304,-27.462199 59.427712,-24.592641 5.82858,0.711882 11.6749,2.175967 17.43854,4.387613 m -16.97601,-9.137075 c 1.32344,-0.01245 2.65086,0.01403 3.98027,0.07984 22.73059,1.125291 44.53158,13.673344 56.66892,35.573123 m -8.24025,-18.330745 c 14.79063,12.967955 22.69539,32.143505 21.74593,52.232325 -0.002,2.4e-4 -0.003,4.8e-4 -0.005,7.2e-4 -0.31641,6.68349 -1.60814,13.34301 -3.84638,19.76412 m 2.92864,-8.41214 c -4.28537,32.37393 -26.66897,57.57823 -55.56433,64.57895 m 23.08573,-9.97058 c -10.58128,6.48152 -22.80772,9.53002 -35.29852,8.90497 -20.298109,-1.01573 -39.88167,-11.63796 -53.369163,-29.3492 m 21.013485,18.02282 C 48.925738,195.38796 33.322555,170.987 34.12019,145.59182 c 0.167814,-5.34289 1.065314,-10.60175 2.679779,-15.62958 m -3.516858,22.01182 c -0.582826,-3.71799 -0.844792,-7.49793 -0.781936,-11.30149 0.398432,-24.1101 13.744,-47.298172 36.166083,-61.580134 M 41.661405,101.62956 C 55.942274,85.289107 76.361499,76.004242 98.556937,75.622529 c 10.125293,-0.174132 20.290203,1.509949 30.046603,4.885113 m -22.93277,-4.951587 c 33.05421,1.484771 59.66383,24.611325 65.32767,54.660925 m -6.41316,-23.63214 c 6.88539,10.79087 10.8127,24.06741 11.15622,37.96804 8.5e-4,8.2e-4 0.002,0.002 0.003,0.002 0.49416,19.92032 -6.39519,39.6164 -19.34451,53.98435 m 18.83277,-48.34276 c -0.65952,32.01647 -23.67272,58.27449 -55.59438,59.9427 m 18.49484,-3.07658 c -12.13006,7.94332 -26.03623,12.2321 -40.054231,12.21825 -18.659146,-0.0184 -36.151998,-7.66456 -48.626346,-21.41182 m 25.735498,7.0054 c -26.405535,-9.56418 -45.068924,-34.99037 -45.840482,-60.93066 -0.03917,-1.31675 -0.03136,-2.6266 0.02358,-3.92686 m 6.396247,26.1932 c -1.909059,-6.32654 -2.92205,-12.83379 -3.028694,-19.33838 -0.282686,-17.24192 5.810341,-33.66412 16.810929,-46.11736 m -5.684468,15.19702 C 56.851205,92.589002 80.789202,78.826321 107.10396,78.77782 c 3.94487,-0.0073 7.89128,0.294664 11.8038,0.898001 m -25.700624,0.642714 c 3.587297,-0.52328 7.237944,-0.771434 10.911524,-0.738836 20.99302,0.186285 41.35936,9.516492 54.46281,25.775991 M 145.74651,95.246318 c 17.62906,13.979722 28.43216,33.795152 29.49437,53.985242 0.002,-0.003 0.003,-0.006 0.005,-0.009 0.29516,5.60098 -0.1712,11.10049 -1.37663,16.35345 m -3.60324,-19.99235 c -3.21561,33.40868 -28.40835,63.06252 -61.43428,69.22621 m 27.90206,-1.25233 c -11.02962,6.84591 -23.26339,10.35075 -35.50378,10.41527 -14.606653,0.077 -28.563555,-4.74709 -39.878025,-13.40857 m 27.402668,0.77302 C 62.248273,202.05289 43.387449,177.59701 41.191482,149.58485 m 1.052631,23.03141 c -2.817748,-8.00511 -4.366155,-16.38161 -4.542104,-24.74681 -0.461738,-21.95253 8.576315,-42.03927 24.505362,-53.926184 M 45.902033,104.48598 C 58.653617,83.817527 81.531936,71.767266 106.0308,72.274353 c 7.65012,0.158345 15.25317,1.540158 22.50762,4.089966 m -21.33376,-9.103062 c 1.33344,-0.05819 2.66392,-0.08008 3.99029,-0.06558 30.07655,0.328815 55.26997,19.245405 65.6065,49.015904 m -22.1859,-8.87677 c 11.08892,13.30395 17.5574,29.89501 18.15717,47.04095 0.001,-1.3e-4 0.002,-2.6e-4 0.003,-3.9e-4 0.48354,13.79454 -2.86086,27.23843 -9.60255,38.83092 M 33.418705,107.94995 93.062256,66.025646 M 157.93185,85.782668 184.08,153.83614 m -68.3327,-87.786678 59.55539,42.049448 m -2.99888,79.88216 -62.54049,37.4658 m -78.60533,-47.16448 3.628992,-72.81367"
       inkscape:export-filename="/home/shimpe/development/godot/clocks/art/plate.png"
       inkscape:export-xdpi="213.62199"
       inkscape:export-ydpi="213.62199" />
  </g>
</svg>
